#!OML:ASF F:\VICON\USERDATA\INSTALL\rory3\rory3.ASF
:FULLY-SPECIFIED
:DEGREES
1455
root -1.63293 7.87824 0.668438 2.66321 -1.34305 1.09345
lowerback 19.5972 0.696718 -2.4179
upperback 2.11157 0.582302 1.98758
thorax -8.73671 0.401961 3.39054
lowerneck -21.8457 -0.219581 -9.10362
upperneck 25.3941 2.32806 2.12634
head 11.854 0.429338 2.69903
rclavicle -8.94531e-015 3.18055e-015
rhumerus -42.9558 -26.8246 -43.2708
rradius 38.7822
rwrist 3.98174
rhand -34.6596 1.5671
rfingers 7.12502
rthumb -7.81628 -28.2684
lclavicle -8.94531e-015 3.18055e-015
lhumerus -41.2475 27.6863 53.286
lradius 34.341
lwrist 1.81514
lhand -22.5275 20.0244
lfingers 7.12502
lthumb 3.89938 49.9684
rfemur -92.7876 -72.6863 16.4624
rtibia 154.252
rfoot -17.8979 38.1898
rtoes -15.3751
lfemur -80.4791 72.0335 -5.13576
ltibia 151.179
lfoot -39.5433 -44.4983
ltoes -26.3254
1456
root -1.62476 7.79443 0.665635 2.49292 -1.54266 1.02897
lowerback 19.775 0.73189 -2.32717
upperback 2.13224 0.648693 2.03061
thorax -8.81598 0.432127 3.36874
lowerneck -21.8037 -0.190696 -9.1492
upperneck 25.3925 2.38084 2.12474
head 11.8414 0.44844 2.71368
rclavicle -1.80894e-014 -1.74931e-014
rhumerus -42.9256 -26.6949 -43.2992
rradius 38.8404
rwrist 3.71104
rhand -34.6275 1.29819
rfingers 7.12502
rthumb -7.78525 -28.5385
lclavicle -1.80894e-014 -1.74931e-014
lhumerus -41.3533 27.6176 53.4038
lradius 34.3803
lwrist 1.89934
lhand -22.5556 20.2051
lfingers 7.12502
lthumb 3.87226 50.1497
rfemur -94.2709 -73.2753 17.038
rtibia 154.784
rfoot -17.4118 38.6407
rtoes -15.9889
lfemur -81.1289 74.0438 -4.87619
ltibia 151.8
lfoot -39.9819 -45.0876
ltoes -26.341
1457
root -1.61668 7.71042 0.660075 2.32198 -1.64583 0.971192
lowerback 19.9533 0.751303 -2.19349
upperback 2.17809 0.702604 2.05831
thorax -8.86585 0.45359 3.30837
lowerneck -21.7747 -0.162383 -9.12284
upperneck 25.3681 2.42773 2.05685
head 11.8251 0.463866 2.69019
rclavicle 2.78299e-015 1.82882e-014
rhumerus -42.9482 -26.4975 -43.3919
rradius 38.9929
rwrist 3.39612
rhand -34.6247 1.47676
rfingers 7.12502
rthumb -7.78251 -28.36
lclavicle 2.78299e-015 1.82882e-014
lhumerus -41.3279 27.6165 53.5329
lradius 34.3964
lwrist 1.86088
lhand -22.3928 20.4654
lfingers 7.12502
lthumb 4.02945 50.407
rfemur -95.5518 -74.0312 17.377
rtibia 155.296
rfoot -16.5026 39.3472
rtoes -15.479
lfemur -81.0799 76.1636 -3.81026
ltibia 152.422
lfoot -40.4667 -46.2024
ltoes -25.6302
1458
root -1.61141 7.63343 0.653227 2.15255 -1.63225 0.889547
lowerback 20.1316 0.731154 -2.03669
upperback 2.22457 0.711771 2.10122
thorax -8.91136 0.453121 3.26349
lowerneck -21.6956 -0.159601 -9.08848
upperneck 25.2922 2.43539 1.96547
head 11.7823 0.46145 2.64852
rclavicle -1.39149e-015 -1.27222e-014
rhumerus -42.8969 -26.3662 -43.48
rradius 39.0192
rwrist 3.48888
rhand -34.5459 1.6455
rfingers 7.12502
rthumb -7.70644 -28.1941
lclavicle -1.39149e-015 -1.27222e-014
lhumerus -41.3273 27.6021 53.6439
lradius 34.4248
lwrist 1.77464
lhand -22.2396 20.3943
lfingers 7.12502
lthumb 4.17741 50.3331
rfemur -96.3431 -75.1284 17.3773
rtibia 155.756
rfoot -15.5793 40.304
rtoes -14.4454
lfemur -80.5396 77.9844 -2.30809
ltibia 152.938
lfoot -41.1203 -47.3191
ltoes -24.8631
1459
root -1.61022 7.56664 0.644552 1.93643 -1.59053 0.890489
lowerback 20.3793 0.716183 -1.9973
upperback 2.27831 0.698682 2.11523
thorax -8.98581 0.446072 3.26089
lowerneck -21.6948 -0.176155 -9.07357
upperneck 25.3358 2.40663 1.96904
head 11.801 0.448859 2.6439
rclavicle -9.93923e-016 -2.38542e-015
rhumerus -42.8042 -26.4249 -43.5215
rradius 38.9323
rwrist 3.73361
rhand -34.572 1.35819
rfingers 7.12502
rthumb -7.7317 -28.4805
lclavicle -9.93923e-016 -2.38542e-015
lhumerus -41.3094 27.5418 53.7507
lradius 34.4422
lwrist 1.68384
lhand -21.8561 19.8589
lfingers 7.12502
lthumb 4.54768 49.7901
rfemur -97.1261 -76.0862 17.3577
rtibia 156.156
rfoot -14.5595 41.0689
rtoes -13.5595
lfemur -80.6805 79.0661 -1.85689
ltibia 153.295
lfoot -41.7248 -47.7832
ltoes -25.1644
